<svg xmlns="http://www.w3.org/2000/svg" xmlns:xlink="http://www.w3.org/1999/xlink" x="0" y="0" width="702" height="144.1875" style="
        width:702px;
        height:144.1875px;
        background: transparent;
        fill: none;
">
        <svg xmlns="http://www.w3.org/2000/svg"/>
        
        <svg xmlns="http://www.w3.org/2000/svg" class="role-diagram-draw-area" style="overflow: visible;"><g class="shapes-region" style="stroke: black; fill: none;"><g class="composite-shape"><path class="real" d=" M109.55,60.92 C109.55,58.99 111.12,57.42 113.06,57.42 L136.04,57.42 C137.98,57.42 139.55,58.99 139.55,60.92 L139.55,130.8 C139.55,132.74 137.98,134.31 136.04,134.31 L113.06,134.31 C111.12,134.31 109.55,132.74 109.55,130.8 Z" style="stroke-width: 2; stroke: rgb(0, 0, 0); fill: none; fill-opacity: 1;"/></g><g class="arrow-line"><path class="connection real" stroke-dasharray="" d="  M79.4,123 L109,123" style="stroke: rgb(0, 0, 0); stroke-width: 1; fill: none; fill-opacity: 1;"/></g><g class="arrow-line"><path class="connection real" stroke-dasharray="" d="  M139.95,67.17 L169.55,67.17" style="stroke: rgb(0, 0, 0); stroke-width: 1; fill: none; fill-opacity: 1;"/></g><g class="arrow-line"><path class="connection real" stroke-dasharray="" d="  M139.95,94.93 L169.55,94.93" style="stroke: rgb(0, 0, 0); stroke-width: 1; fill: none; fill-opacity: 1;"/></g><g class="arrow-line"><path class="connection real" stroke-dasharray="" d="  M139.95,123 L169.55,123" style="stroke: rgb(0, 0, 0); stroke-width: 1; fill: none; fill-opacity: 1;"/></g><g class="arrow-line"><path class="connection real" stroke-dasharray="" d="  M209.44,67.71 L239.04,67.71" style="stroke: rgb(0, 0, 0); stroke-width: 1; fill: none; fill-opacity: 1;"/></g><g class="arrow-line"><path class="connection real" stroke-dasharray="" d="  M209.44,95.47 L239.04,95.47" style="stroke: rgb(0, 0, 0); stroke-width: 1; fill: none; fill-opacity: 1;"/></g><g class="arrow-line"><path class="connection real" stroke-dasharray="" d="  M209.44,123 L239.04,123" style="stroke: rgb(0, 0, 0); stroke-width: 1; fill: none; fill-opacity: 1;"/></g><g class="composite-shape"><path class="real" d=" M239.03,62.26 C239.03,60.32 240.6,58.75 242.54,58.75 L265.52,58.75 C267.46,58.75 269.03,60.32 269.03,62.26 L269.03,132.14 C269.03,134.07 267.46,135.64 265.52,135.64 L242.54,135.64 C240.6,135.64 239.03,134.07 239.03,132.14 Z" style="stroke-width: 2; stroke: rgb(0, 0, 0); fill: none; fill-opacity: 1;"/></g><g class="arrow-line"><path class="connection real" stroke-dasharray="" d="  M269.43,123 L299.03,123" style="stroke: rgb(0, 0, 0); stroke-width: 1; fill: none; fill-opacity: 1;"/></g><g class="composite-shape"><path class="real" d=" M170.55,59.3 C170.55,57.92 171.67,56.8 173.06,56.8 L206.49,56.8 C207.87,56.8 209,57.92 209,59.3 L209,75.72 C209,77.1 207.87,78.22 206.49,78.22 L173.06,78.22 C171.67,78.22 170.55,77.1 170.55,75.72 Z" style="stroke-width: 2; stroke: rgb(0, 0, 0); fill: none; fill-opacity: 1;"/></g><g class="composite-shape"><path class="real" d=" M170.55,86.91 C170.55,85.5 171.7,84.35 173.11,84.35 L206.44,84.35 C207.85,84.35 209,85.5 209,86.91 L209,103.67 C209,105.08 207.85,106.22 206.44,106.22 L173.11,106.22 C171.7,106.22 170.55,105.08 170.55,103.67 Z" style="stroke-width: 2; stroke: rgb(0, 0, 0); fill: none; fill-opacity: 1;"/></g><g class="composite-shape"><path class="real" d=" M109.8,68.54 C90,64.93 77.79,59.97 77.79,54.5 C77.79,43.44 127.77,34.47 189.43,34.47 C251.09,34.47 301.07,43.44 301.07,54.5 C301.07,59.97 288.86,64.93 269.06,68.54 L189.43,54.5 Z" style="stroke-width: 1; stroke: none; fill: none; fill-opacity: 1;"/><path class="real" d=" M109.8,68.54 C90,64.93 77.79,59.97 77.79,54.5 C77.79,43.44 127.77,34.47 189.43,34.47 C251.09,34.47 301.07,43.44 301.07,54.5 C301.07,59.97 288.86,64.93 269.06,68.54" style="stroke-width: 1; stroke: rgb(0, 0, 0); fill: none; fill-opacity: 1;"/></g><g class="composite-shape"><path class="real" d=" M109.23,96.32 C81.89,87.45 64.5,74.11 64.5,59.19 C64.5,32.49 120.18,10.85 188.86,10.85 C257.54,10.85 313.22,32.49 313.22,59.19 C313.22,74.11 295.82,87.45 268.48,96.32 L188.86,59.19 Z" style="stroke-width: 1; stroke: none; fill: none; fill-opacity: 1;"/><path class="real" d=" M109.23,96.32 C81.89,87.45 64.5,74.11 64.5,59.19 C64.5,32.49 120.18,10.85 188.86,10.85 C257.54,10.85 313.22,32.49 313.22,59.19 C313.22,74.11 295.82,87.45 268.48,96.32" style="stroke-width: 1; stroke: rgb(0, 0, 0); fill: none; fill-opacity: 1;"/></g><g class="composite-shape"><path class="real" d=" M400.06,37.86 L423.04,37.86 C423.3,37.86 423.55,37.89 423.79,37.94 L528.79,37.94 C529.03,37.89 529.28,37.86 529.54,37.86 L552.52,37.86 C554.46,37.86 556.03,39.43 556.03,41.37 L556.03,111.24 C556.03,113.18 554.46,114.75 552.52,114.75 L529.54,114.75 C527.6,114.75 526.03,113.18 526.03,111.24 L526.03,86.22 L426.55,86.22 L426.55,111.24 C426.55,113.18 424.98,114.75 423.04,114.75 L400.06,114.75 C398.12,114.75 396.55,113.18 396.55,111.24 L396.55,73.14 C396.52,72.74 396.5,72.34 396.5,71.94 L396.5,52.22 C396.5,51.82 396.52,51.42 396.55,51.02 L396.55,41.37 C396.55,39.43 398.12,37.86 400.06,37.86 Z" style="stroke-width: 2; stroke: rgb(0, 0, 0); fill: none; fill-opacity: 1;"/></g><g class="arrow-line"><path class="connection real" stroke-dasharray="" d="  M366.4,100 L396,100" style="stroke: rgb(0, 0, 0); stroke-width: 1; fill: none; fill-opacity: 1;"/></g><g class="arrow-line"><path class="connection real" stroke-dasharray="" d="  M426.95,99.96 L456.55,99.96" style="stroke: rgb(0, 0, 0); stroke-width: 1; fill: none; fill-opacity: 1;"/></g><g class="arrow-line"><path class="connection real" stroke-dasharray="" d="  M496.44,100 L526.04,100" style="stroke: rgb(0, 0, 0); stroke-width: 1; fill: none; fill-opacity: 1;"/></g><g class="arrow-line"><path class="connection real" stroke-dasharray="" d="  M556.43,100 L586.03,100" style="stroke: rgb(0, 0, 0); stroke-width: 1; fill: none; fill-opacity: 1;"/></g><g/></g><g/><g/><g/></svg>
        <svg xmlns="http://www.w3.org/2000/svg" xmlns:xlink="http://www.w3.org/1999/xlink" width="700" height="142.1875" style="width:700px;height:142.1875px;font-family:LatinModern-Math, LatinModern, Asana-Math, Asana;background:transparent;"><g><g><g><g transform="matrix(1,0,0,1,117.109375,103.19375)"><path transform="matrix(0.0216,0,0,-0.0216,0,0)" d="M760 672C760 672 760 683 747 683C714 683 679 680 645 680C611 680 574 683 541 683C535 683 523 683 523 663C523 652 533 652 541 652C598 651 609 630 609 608C609 605 607 590 606 587L516 230C482 96 367 9 267 9C199 9 145 53 145 139C145 139 145 173 156 217L253 606C262 642 264 652 337 652C363 652 371 652 371 672C371 683 360 683 357 683L229 680L100 683C92 683 81 683 81 663C81 652 90 652 109 652C109 652 130 652 147 650C165 648 174 647 174 634C174 628 163 586 157 563L135 475L74 228C67 200 67 185 67 170C67 48 158 -22 263 -22C389 -22 513 91 546 223L635 578C645 619 663 649 743 652C748 652 760 653 760 672Z" stroke="rgb(0,0,0)" stroke-opacity="1" stroke-width="8" fill="rgb(0,0,0)" fill-opacity="1"></path></g></g><g><g><g><g><g transform="matrix(1,0,0,1,133.09375,96.71375)"><path transform="matrix(0.01512,0,0,-0.01512,0,0)" d="M387 430C387 443 381 464 350 464C329 464 300 456 279 450C276 449 251 442 231 440C232 460 233 488 244 553C249 590 255 627 255 664C255 672 255 705 222 705C188 705 188 673 188 664C188 629 197 571 201 547C208 501 211 469 212 440C201 441 181 445 162 450C143 456 114 464 93 464C58 464 56 436 56 431C56 418 62 397 93 397C114 397 143 405 164 411C167 412 192 419 212 421C210 396 207 376 202 351C188 279 188 271 188 218C188 67 199 -101 208 -196C209 -210 210 -216 221 -216C233 -216 233 -211 235 -198C241 -148 244 -95 246 -44C250 19 255 122 255 218C255 272 255 279 241 350C236 373 233 394 231 421C242 420 262 416 281 411C300 405 329 397 350 397C385 397 387 425 387 430Z" stroke="rgb(0,0,0)" stroke-opacity="1" stroke-width="8" fill="rgb(0,0,0)" fill-opacity="1"></path></g></g></g></g></g></g></g><g><g><g><g transform="matrix(1,0,0,1,247.71875,103.63125)"><path transform="matrix(0.0216,0,0,-0.0216,0,0)" d="M760 672C760 672 760 683 747 683C714 683 679 680 645 680C611 680 574 683 541 683C535 683 523 683 523 663C523 652 533 652 541 652C598 651 609 630 609 608C609 605 607 590 606 587L516 230C482 96 367 9 267 9C199 9 145 53 145 139C145 139 145 173 156 217L253 606C262 642 264 652 337 652C363 652 371 652 371 672C371 683 360 683 357 683L229 680L100 683C92 683 81 683 81 663C81 652 90 652 109 652C109 652 130 652 147 650C165 648 174 647 174 634C174 628 163 586 157 563L135 475L74 228C67 200 67 185 67 170C67 48 158 -22 263 -22C389 -22 513 91 546 223L635 578C645 619 663 649 743 652C748 652 760 653 760 672Z" stroke="rgb(0,0,0)" stroke-opacity="1" stroke-width="8" fill="rgb(0,0,0)" fill-opacity="1"></path></g></g></g></g><g><g><g><g transform="matrix(1,0,0,1,329.6875,97.615625)"><path transform="matrix(0.0216,0,0,-0.0216,0,0)" d="M722 347C722 358 713 367 702 367L76 367C65 367 56 358 56 347C56 336 65 327 76 327L702 327C713 327 722 336 722 347ZM722 153C722 164 713 173 702 173L76 173C65 173 56 164 56 153C56 142 65 133 76 133L702 133C713 133 722 142 722 153Z" stroke="rgb(0,0,0)" stroke-opacity="1" stroke-width="8" fill="rgb(0,0,0)" fill-opacity="1"></path></g></g></g></g><g><g><g><g transform="matrix(1,0,0,1,173.5,72.640625)"><path transform="matrix(0.015,0,0,-0.015,0,0)" d="M159 -230L159 730C159 741 150 750 139 750C128 750 119 741 119 730L119 -230C119 -241 128 -250 139 -250C150 -250 159 -241 159 -230Z" stroke="rgb(0,0,0)" stroke-opacity="1" stroke-width="8" fill="rgb(0,0,0)" fill-opacity="1"></path></g></g><g><g transform="matrix(1,0,0,1,177.66998291015625,72.640625)"><path transform="matrix(0.015,0,0,-0.015,0,0)" d="M460 320C460 400 455 480 420 554C374 650 292 666 250 666C190 666 117 640 76 547C44 478 39 400 39 320C39 245 43 155 84 79C127 -2 200 -22 249 -22C303 -22 379 -1 423 94C455 163 460 241 460 320ZM377 332C377 257 377 189 366 125C351 30 294 0 249 0C210 0 151 25 133 121C122 181 122 273 122 332C122 396 122 462 130 516C149 635 224 644 249 644C282 644 348 626 367 527C377 471 377 395 377 332Z" stroke="rgb(0,0,0)" stroke-opacity="1" stroke-width="8" fill="rgb(0,0,0)" fill-opacity="1"></path></g></g><g><g transform="matrix(1,0,0,1,185.16998291015625,72.640625)"><path transform="matrix(0.015,0,0,-0.015,0,0)" d="M279 250C279 253 279 255 278 257L92 737C89 745 81 750 73 750C62 750 53 741 53 730C53 727 53 725 54 723L238 250L54 -223C53 -225 53 -227 53 -230C53 -241 62 -250 73 -250C81 -250 89 -245 92 -237L278 243C279 245 279 247 279 250Z" stroke="rgb(0,0,0)" stroke-opacity="1" stroke-width="8" fill="rgb(0,0,0)" fill-opacity="1"></path></g></g><g><g transform="matrix(1,0,0,1,191.0050048828125,72.640625)"><path transform="matrix(0.015,0,0,-0.015,0,0)" d="M336 -230C336 -227 336 -225 335 -223L151 250L335 723C336 725 336 727 336 730C336 741 327 750 316 750C308 750 300 745 297 737L111 257C110 255 110 253 110 250C110 247 110 245 111 243L297 -237C300 -245 308 -250 316 -250C327 -250 336 -241 336 -230Z" stroke="rgb(0,0,0)" stroke-opacity="1" stroke-width="8" fill="rgb(0,0,0)" fill-opacity="1"></path></g></g><g><g transform="matrix(1,0,0,1,196.84002685546875,72.640625)"><path transform="matrix(0.015,0,0,-0.015,0,0)" d="M460 320C460 400 455 480 420 554C374 650 292 666 250 666C190 666 117 640 76 547C44 478 39 400 39 320C39 245 43 155 84 79C127 -2 200 -22 249 -22C303 -22 379 -1 423 94C455 163 460 241 460 320ZM377 332C377 257 377 189 366 125C351 30 294 0 249 0C210 0 151 25 133 121C122 181 122 273 122 332C122 396 122 462 130 516C149 635 224 644 249 644C282 644 348 626 367 527C377 471 377 395 377 332Z" stroke="rgb(0,0,0)" stroke-opacity="1" stroke-width="8" fill="rgb(0,0,0)" fill-opacity="1"></path></g></g><g><g transform="matrix(1,0,0,1,204.34002685546875,72.640625)"><path transform="matrix(0.015,0,0,-0.015,0,0)" d="M159 -230L159 730C159 741 150 750 139 750C128 750 119 741 119 730L119 -230C119 -241 128 -250 139 -250C150 -250 159 -241 159 -230Z" stroke="rgb(0,0,0)" stroke-opacity="1" stroke-width="8" fill="rgb(0,0,0)" fill-opacity="1"></path></g></g></g></g><g><g><g><g transform="matrix(1,0,0,1,174,100.234375)"><path transform="matrix(0.015,0,0,-0.015,0,0)" d="M159 -230L159 730C159 741 150 750 139 750C128 750 119 741 119 730L119 -230C119 -241 128 -250 139 -250C150 -250 159 -241 159 -230Z" stroke="rgb(0,0,0)" stroke-opacity="1" stroke-width="8" fill="rgb(0,0,0)" fill-opacity="1"></path></g></g><g><g transform="matrix(1,0,0,1,178.16998291015625,100.234375)"><path transform="matrix(0.015,0,0,-0.015,0,0)" d="M460 320C460 400 455 480 420 554C374 650 292 666 250 666C190 666 117 640 76 547C44 478 39 400 39 320C39 245 43 155 84 79C127 -2 200 -22 249 -22C303 -22 379 -1 423 94C455 163 460 241 460 320ZM377 332C377 257 377 189 366 125C351 30 294 0 249 0C210 0 151 25 133 121C122 181 122 273 122 332C122 396 122 462 130 516C149 635 224 644 249 644C282 644 348 626 367 527C377 471 377 395 377 332Z" stroke="rgb(0,0,0)" stroke-opacity="1" stroke-width="8" fill="rgb(0,0,0)" fill-opacity="1"></path></g></g><g><g transform="matrix(1,0,0,1,185.66998291015625,100.234375)"><path transform="matrix(0.015,0,0,-0.015,0,0)" d="M279 250C279 253 279 255 278 257L92 737C89 745 81 750 73 750C62 750 53 741 53 730C53 727 53 725 54 723L238 250L54 -223C53 -225 53 -227 53 -230C53 -241 62 -250 73 -250C81 -250 89 -245 92 -237L278 243C279 245 279 247 279 250Z" stroke="rgb(0,0,0)" stroke-opacity="1" stroke-width="8" fill="rgb(0,0,0)" fill-opacity="1"></path></g></g><g><g transform="matrix(1,0,0,1,191.5050048828125,100.234375)"><path transform="matrix(0.015,0,0,-0.015,0,0)" d="M336 -230C336 -227 336 -225 335 -223L151 250L335 723C336 725 336 727 336 730C336 741 327 750 316 750C308 750 300 745 297 737L111 257C110 255 110 253 110 250C110 247 110 245 111 243L297 -237C300 -245 308 -250 316 -250C327 -250 336 -241 336 -230Z" stroke="rgb(0,0,0)" stroke-opacity="1" stroke-width="8" fill="rgb(0,0,0)" fill-opacity="1"></path></g></g><g><g transform="matrix(1,0,0,1,197.34002685546875,100.234375)"><path transform="matrix(0.015,0,0,-0.015,0,0)" d="M460 320C460 400 455 480 420 554C374 650 292 666 250 666C190 666 117 640 76 547C44 478 39 400 39 320C39 245 43 155 84 79C127 -2 200 -22 249 -22C303 -22 379 -1 423 94C455 163 460 241 460 320ZM377 332C377 257 377 189 366 125C351 30 294 0 249 0C210 0 151 25 133 121C122 181 122 273 122 332C122 396 122 462 130 516C149 635 224 644 249 644C282 644 348 626 367 527C377 471 377 395 377 332Z" stroke="rgb(0,0,0)" stroke-opacity="1" stroke-width="8" fill="rgb(0,0,0)" fill-opacity="1"></path></g></g><g><g transform="matrix(1,0,0,1,204.84002685546875,100.234375)"><path transform="matrix(0.015,0,0,-0.015,0,0)" d="M159 -230L159 730C159 741 150 750 139 750C128 750 119 741 119 730L119 -230C119 -241 128 -250 139 -250C150 -250 159 -241 159 -230Z" stroke="rgb(0,0,0)" stroke-opacity="1" stroke-width="8" fill="rgb(0,0,0)" fill-opacity="1"></path></g></g></g></g><g><g><g><text x="415.046875" y="57.359375" style="white-space:pre;stroke:none;fill:rgb(0,0,0);fill-opacity:1;font-size:15px;font-family:Arial, Helvetica, sans-serif;font-weight:400;font-style:normal;dominant-baseline:text-before-edge;text-decoration:none;">Quantum Channel</text></g></g></g></svg>
</svg>
